<?xml version="1.0" encoding="utf-8"?>
<!-- Generator: Adobe Illustrator 22.0.1, SVG Export Plug-In . SVG Version: 6.00 Build 0)  -->
<svg version="1.1" id="Layer_1" xmlns="http://www.w3.org/2000/svg" xmlns:xlink="http://www.w3.org/1999/xlink" x="0px" y="0px"
	 viewBox="0 0 1500 1000" style="enable-background:new 0 0 1500 1000;" xml:space="preserve">
<style type="text/css">
	.st0{fill:#131F3A;}
	.st1{fill:#C58ACE;}
	.st2{fill:#8193F5;}
	.st3{fill:#F4CE21;}
	.st4{fill:#F57A72;}
	.st5{fill:#3CF5F7;}
</style>
<g>
	<rect y="0" class="st0" width="1500" height="1000"/>
	<g>
		<path class="st1" d="M85.5,705.5L85.5,705.5c-6.8-6.8-17.8-6.8-24.5,0l0,0c-6.8,6.8-6.8,17.8,0,24.5l0,0c6.8,6.8,17.8,6.8,24.5,0
			l0,0C92.2,723.2,92.2,712.3,85.5,705.5z"/>
		<path class="st2" d="M142.4,889.9c0.4-13.3,11.4-24,24.8-24c13.4,0,24.4,10.7,24.8,24h16.8c-0.5-22.6-18.9-40.8-41.7-40.8
			c-22.7,0-41.2,18.2-41.6,40.8H142.4z"/>
		<path class="st2" d="M1364.7,237.2c-9-9.9-8.5-25.2,1.1-34.5c9.7-9.4,24.9-9.3,34.5-0.1l12.1-11.7c-16.1-15.9-42-16.1-58.3-0.3
			s-16.9,41.7-1.5,58.3L1364.7,237.2z"/>
		<path class="st3" d="M1355.8,689.8c7.5,11,5,26.1-5.8,34s-26,5.8-34.2-4.7l-13.6,9.9c13.7,18,39.4,21.8,57.7,8.3
			c18.3-13.4,22.5-39,9.5-57.5L1355.8,689.8z"/>
		<path class="st2" d="M800,813.8v16.8c12.5,1,22.5,11.2,22.9,23.9h16.8C839.3,832.6,821.9,814.8,800,813.8z"/>
		<path class="st3" d="M228.4,183.8h-16.8c-1,12.5-11.2,22.5-23.9,22.9v16.8C209.6,223,227.4,205.6,228.4,183.8z"/>
		<path class="st4" d="M423.9,774l36.6,17.5c9.2-20.3,0.8-44.2-19-54.3L423.9,774z"/>
		<path class="st4" d="M1152.3,323h40.6c-0.4-22.3-18.3-40.2-40.6-40.8V323z"/>
		<path class="st3" d="M702.4,660.3l35.2,27.6c13.4-17.8,9-44.1-10-59.7L702.4,660.3z"/>
		<polygon class="st2" points="113.2,504.4 113.2,545 154,504.4 		"/>
		<polygon class="st1" points="1260.7,565.5 1301.3,565.5 1260.7,524.7 		"/>
		
			<rect x="318" y="305.6" transform="matrix(0.7071 -0.7071 0.7071 0.7071 -130.1579 331.7248)" class="st5" width="34.7" height="34.7"/>
		<path class="st1" d="M436.5,566L436.5,566c-6.8-6.8-17.8-6.8-24.5,0l0,0c-6.8,6.8-6.8,17.8,0,24.5l0,0c6.8,6.8,17.8,6.8,24.5,0
			l0,0C443.3,583.8,443.3,572.8,436.5,566z"/>
		<path class="st5" d="M1449.3,821.9L1449.3,821.9c-6.8-6.8-17.8-6.8-24.5,0l0,0c-6.8,6.8-6.8,17.8,0,24.5l0,0
			c6.8,6.8,17.8,6.8,24.5,0l0,0C1456.1,839.7,1456.1,828.7,1449.3,821.9z"/>
		<path class="st2" d="M1212.2,112.5L1212.2,112.5c-6.8-6.8-17.8-6.8-24.5,0l0,0c-6.8,6.8-6.8,17.8,0,24.5l0,0
			c6.8,6.8,17.8,6.8,24.5,0l0,0C1219,130.2,1219,119.2,1212.2,112.5z"/>
		<path class="st3" d="M849.5,95.1L849.5,95.1c-6.8-6.8-17.8-6.8-24.5,0l0,0c-6.8,6.8-6.8,17.8,0,24.5l0,0c6.8,6.8,17.8,6.8,24.5,0
			l0,0C856.3,112.9,856.3,101.9,849.5,95.1z"/>
		<path class="st1" d="M1073,553.2L1073,553.2c-6.8-6.8-17.8-6.8-24.5,0l0,0c-6.8,6.8-6.8,17.8,0,24.5l0,0c6.8,6.8,17.8,6.8,24.5,0
			l0,0C1079.7,571,1079.7,560,1073,553.2z"/>
		<path class="st4" d="M580.5,154.1L580.5,154.1c-6.8-6.8-17.8-6.8-24.5,0l0,0c-6.8,6.8-6.8,17.8,0,24.5l0,0
			c6.8,6.8,17.8,6.8,24.5,0l0,0C587.3,171.9,587.3,160.9,580.5,154.1z"/>
		<path class="st2" d="M630.1,895.7L630.1,895.7c-6.8-6.8-17.8-6.8-24.5,0l0,0c-6.8,6.8-6.8,17.8,0,24.5l0,0
			c6.8,6.8,17.8,6.8,24.5,0l0,0C636.9,913.5,636.9,902.5,630.1,895.7z"/>
		<path class="st2" d="M1448.5,405.7L1448.5,405.7c-4-4-10.5-4-14.5,0l0,0c-4,4-4,10.5,0,14.5l0,0c4,4,10.5,4,14.5,0l0,0
			C1452.5,416.2,1452.5,409.7,1448.5,405.7z"/>
		<path class="st2" d="M105.1,336L105.1,336c-4-4-10.5-4-14.5,0l0,0c-4,4-4,10.5,0,14.5l0,0c4,4,10.5,4,14.5,0l0,0
			C109.1,346.5,109.1,340,105.1,336z"/>
		<path class="st2" d="M693.8,285.1L693.8,285.1c-4-4-10.5-4-14.5,0l0,0c-4,4-4,10.5,0,14.5l0,0c4,4,10.5,4,14.5,0l0,0
			C697.8,295.6,697.8,289.1,693.8,285.1z"/>
		<path class="st1" d="M1016.9,54.8L1016.9,54.8c-4-4-10.5-4-14.5,0l0,0c-4,4-4,10.5,0,14.5l0,0c4,4,10.5,4,14.5,0l0,0
			C1020.9,65.3,1020.9,58.8,1016.9,54.8z"/>
		<path class="st1" d="M960.6,196.4L960.6,196.4c-4-4-10.5-4-14.5,0l0,0c-4,4-4,10.5,0,14.5l0,0c4,4,10.5,4,14.5,0l0,0
			C964.6,206.9,964.6,200.4,960.6,196.4z"/>
		<path class="st1" d="M992.1,757.1L992.1,757.1c-4-4-10.5-4-14.5,0l0,0c-4,4-4,10.5,0,14.5l0,0c4,4,10.5,4,14.5,0l0,0
			C996.1,767.6,996.1,761.1,992.1,757.1z"/>
		
			<rect x="798.1" y="415.4" transform="matrix(0.5189 -0.8548 0.8548 0.5189 41.6924 921.7311)" class="st5" width="83.3" height="16.8"/>
		
			<rect x="1057.9" y="856.8" transform="matrix(0.815 -0.5795 0.5795 0.815 -297.9184 797.2728)" class="st5" width="83.3" height="16.8"/>
		
			<rect x="326.9" y="76" transform="matrix(0.6053 -0.796 0.796 0.6053 38.7342 313.3624)" class="st1" width="16.8" height="83.3"/>
		
			<rect x="262.5" y="655.8" transform="matrix(0.6053 -0.796 0.796 0.6053 -448.2148 490.9246)" class="st5" width="16.8" height="83.3"/>
		<g>
			<g>
				<g>
					<path class="st2" d="M63.1,100.2L63.1,100.2c-4-4-10.5-4-14.5,0l0,0c-4,4-4,10.5,0,14.5l0,0c4,4,10.5,4,14.5,0l0,0
						C67.1,110.6,67.1,104.1,63.1,100.2z"/>
				</g>
			</g>
		</g>
	</g>
</g>
</svg>
