<?xml version="1.0" encoding="utf-8"?>
<!-- Generator: Adobe Illustrator 22.0.1, SVG Export Plug-In . SVG Version: 6.00 Build 0)  -->
<svg version="1.1" id="Layer_1" xmlns="http://www.w3.org/2000/svg" xmlns:xlink="http://www.w3.org/1999/xlink" x="0px" y="0px"
	 viewBox="0 0 1500 1000" style="enable-background:new 0 0 1500 1000;" xml:space="preserve">
<style type="text/css">
	.st0{fill:#353535;}
	.st1{fill:#1E1E1E;}
	.st2{fill:#C4C4C4;}
	.st3{fill:#A8A8A8;}
	.st4{fill:#494949;}
</style>
<g>
	<rect x="0" class="st0" width="1500" height="1000"/>
	<g>
		<path class="st1" d="M87.6,384.1H70.8c-1,12.5-11.2,22.5-23.9,22.9v16.8C68.8,423.4,86.6,405.9,87.6,384.1z"/>
		<path class="st2" d="M85.5,705.5L85.5,705.5c-6.8-6.8-17.8-6.8-24.5,0l0,0c-6.8,6.8-6.8,17.8,0,24.5l0,0c6.8,6.8,17.8,6.8,24.5,0
			l0,0C92.2,723.2,92.2,712.3,85.5,705.5z"/>
		<path class="st3" d="M225.7,513.1c0.4-13.3,11.4-24,24.8-24c13.4,0,24.4,10.7,24.8,24h16.8c-0.5-22.6-18.9-40.8-41.7-40.8
			c-22.7,0-41.2,18.2-41.6,40.8H225.7z"/>
		<path class="st4" d="M142.4,948.8c0.4-13.3,11.4-24,24.8-24c13.4,0,24.4,10.7,24.8,24h16.8c-0.5-22.6-18.9-40.8-41.7-40.8
			c-22.7,0-41.2,18.2-41.6,40.8H142.4z"/>
		<path class="st4" d="M560.9,513.3c6-11.9,20.4-17,32.6-11.4c12.2,5.6,17.7,19.9,12.5,32.2l15.3,7c9.1-20.7-0.1-45-20.7-54.5
			c-20.6-9.5-45-0.7-54.9,19.6L560.9,513.3z"/>
		<path class="st4" d="M1327.3,226.9c-9-9.9-8.5-25.2,1.1-34.5c9.7-9.4,24.9-9.3,34.5-0.1l12.1-11.7c-16.1-15.9-42-16.1-58.3-0.3
			c-16.3,15.8-16.9,41.7-1.5,58.3L1327.3,226.9z"/>
		<path d="M707.4,157.8c6-11.9,20.4-17.1,32.6-11.5c12.2,5.6,17.7,19.9,12.6,32.2l15.3,7c9-20.7-0.2-45-20.8-54.5
			c-20.7-9.5-45-0.6-54.9,19.7L707.4,157.8z"/>
		<path d="M1404.1,624.2c7.5,11,5,26.1-5.8,34c-10.8,7.9-26,5.8-34.2-4.7l-13.6,9.9c13.7,18,39.4,21.8,57.7,8.3
			c18.3-13.4,22.5-39,9.5-57.5L1404.1,624.2z"/>
		<path class="st2" d="M397.2,873.7c-9.8,9-25.1,8.7-34.5-0.9c-9.4-9.6-9.5-24.9-0.3-34.5l-11.8-12c-15.8,16.2-15.8,42.1,0.1,58.3
			c15.9,16.2,41.9,16.6,58.3,1.1L397.2,873.7z"/>
		<path class="st4" d="M800,813.8v16.8c12.5,1,22.5,11.2,22.9,23.9h16.8C839.3,832.6,821.9,814.8,800,813.8z"/>
		<path class="st1" d="M1160.2,412.9v16.8c12.5,1,22.5,11.2,22.9,23.9h16.8C1199.5,431.7,1182.1,413.9,1160.2,412.9z"/>
		<path d="M228.4,183.8h-16.8c-1,12.5-11.2,22.5-23.9,22.9v16.8C209.6,223,227.4,205.6,228.4,183.8z"/>
		<path class="st3" d="M423.9,774l36.6,17.5c9.2-20.3,0.8-44.2-19-54.3L423.9,774z"/>
		<path class="st2" d="M1107.7,237.5h40.6c-0.4-22.3-18.3-40.2-40.6-40.8V237.5z"/>
		<path class="st4" d="M421.3,120.3h40.6C461.4,98,443.5,80,421.3,79.5V120.3z"/>
		<path class="st2" d="M1232.9,884.2l34.9,20.7c11-19.4,4.7-44-14.1-55.8L1232.9,884.2z"/>
		<path class="st2" d="M221,350.8h40.6c-0.4-22.3-18.3-40.2-40.6-40.8V350.8z"/>
		<path class="st3" d="M871.3,384h40.6c-0.4-22.3-18.3-40.2-40.6-40.8V384z"/>
		<path class="st4" d="M1119.7,656.5h40.6c-0.4-22.3-18.3-40.2-40.6-40.8V656.5z"/>
		<path d="M723.8,649.3l35.2,27.6c13.4-17.8,9-44.1-10-59.7L723.8,649.3z"/>
		<polygon class="st4" points="457.9,333.1 498.5,333.1 457.9,292.3 		"/>
		<polygon class="st4" points="67.2,541.8 67.2,582.4 108,541.8 		"/>
		<polygon class="st2" points="1260.7,565.5 1301.3,565.5 1260.7,524.7 		"/>
		
			<rect x="389.5" y="366.7" transform="matrix(0.7071 0.7071 -0.7071 0.7071 390.749 -175.2206)" class="st1" width="34.7" height="34.7"/>
		<path class="st2" d="M436.5,566L436.5,566c-6.8-6.8-17.8-6.8-24.5,0l0,0c-6.8,6.8-6.8,17.8,0,24.5l0,0c6.8,6.8,17.8,6.8,24.5,0
			l0,0C443.3,583.8,443.3,572.8,436.5,566z"/>
		<path class="st1" d="M1449.3,804.6L1449.3,804.6c-6.8-6.8-17.8-6.8-24.5,0l0,0c-6.8,6.8-6.8,17.8,0,24.5l0,0
			c6.8,6.8,17.8,6.8,24.5,0l0,0C1456.1,822.3,1456.1,811.3,1449.3,804.6z"/>
		<path class="st4" d="M1212.2,112.5L1212.2,112.5c-6.8-6.8-17.8-6.8-24.5,0l0,0c-6.8,6.8-6.8,17.8,0,24.5l0,0
			c6.8,6.8,17.8,6.8,24.5,0l0,0C1219,130.2,1219,119.2,1212.2,112.5z"/>
		<path class="st4" d="M609.6,685.1L609.6,685.1c-6.8-6.8-17.8-6.8-24.5,0l0,0c-6.8,6.8-6.8,17.8,0,24.5l0,0
			c6.8,6.8,17.8,6.8,24.5,0l0,0C616.4,702.8,616.4,691.9,609.6,685.1z"/>
		<path d="M883.5,87.6L883.5,87.6c-6.8-6.8-17.8-6.8-24.5,0l0,0c-6.8,6.8-6.8,17.8,0,24.5l0,0c6.8,6.8,17.8,6.8,24.5,0l0,0
			C890.3,105.4,890.3,94.4,883.5,87.6z"/>
		<path class="st2" d="M1014.5,503.9L1014.5,503.9c-6.8-6.8-17.8-6.8-24.5,0l0,0c-6.8,6.8-6.8,17.8,0,24.5l0,0
			c6.8,6.8,17.8,6.8,24.5,0l0,0C1021.2,521.7,1021.2,510.7,1014.5,503.9z"/>
		<path class="st2" d="M155.2,714.9L155.2,714.9c-6.8-6.8-17.8-6.8-24.5,0l0,0c-6.8,6.8-6.8,17.8,0,24.5l0,0
			c6.8,6.8,17.8,6.8,24.5,0l0,0C162,732.6,162,721.6,155.2,714.9z"/>
		<path class="st4" d="M883.5,581.9L883.5,581.9c-6.8-6.8-17.8-6.8-24.5,0l0,0c-6.8,6.8-6.8,17.8,0,24.5l0,0
			c6.8,6.8,17.8,6.8,24.5,0l0,0C890.3,599.6,890.3,588.6,883.5,581.9z"/>
		<path class="st3" d="M580.5,154.1L580.5,154.1c-6.8-6.8-17.8-6.8-24.5,0l0,0c-6.8,6.8-6.8,17.8,0,24.5l0,0
			c6.8,6.8,17.8,6.8,24.5,0l0,0C587.3,171.9,587.3,160.9,580.5,154.1z"/>
		<path class="st4" d="M630.1,895.7L630.1,895.7c-6.8-6.8-17.8-6.8-24.5,0l0,0c-6.8,6.8-6.8,17.8,0,24.5l0,0
			c6.8,6.8,17.8,6.8,24.5,0l0,0C636.9,913.5,636.9,902.5,630.1,895.7z"/>
		<path class="st4" d="M1448.5,405.7L1448.5,405.7c-4-4-10.5-4-14.5,0l0,0c-4,4-4,10.5,0,14.5l0,0c4,4,10.5,4,14.5,0l0,0
			C1452.5,416.2,1452.5,409.7,1448.5,405.7z"/>
		<path class="st4" d="M105.1,336L105.1,336c-4-4-10.5-4-14.5,0l0,0c-4,4-4,10.5,0,14.5l0,0c4,4,10.5,4,14.5,0l0,0
			C109.1,346.5,109.1,340,105.1,336z"/>
		<path class="st4" d="M693.8,285.1L693.8,285.1c-4-4-10.5-4-14.5,0l0,0c-4,4-4,10.5,0,14.5l0,0c4,4,10.5,4,14.5,0l0,0
			C697.8,295.6,697.8,289.1,693.8,285.1z"/>
		<path class="st2" d="M1436.7,244.8L1436.7,244.8c-4-4-10.5-4-14.5,0l0,0c-4,4-4,10.5,0,14.5l0,0c4,4,10.5,4,14.5,0l0,0
			C1440.7,255.3,1440.7,248.8,1436.7,244.8z"/>
		<path class="st2" d="M1016.9,54.8L1016.9,54.8c-4-4-10.5-4-14.5,0l0,0c-4,4-4,10.5,0,14.5l0,0c4,4,10.5,4,14.5,0l0,0
			C1020.9,65.3,1020.9,58.8,1016.9,54.8z"/>
		<path class="st2" d="M960.6,196.4L960.6,196.4c-4-4-10.5-4-14.5,0l0,0c-4,4-4,10.5,0,14.5l0,0c4,4,10.5,4,14.5,0l0,0
			C964.6,206.9,964.6,200.4,960.6,196.4z"/>
		<path class="st2" d="M992.1,757.1L992.1,757.1c-4-4-10.5-4-14.5,0l0,0c-4,4-4,10.5,0,14.5l0,0c4,4,10.5,4,14.5,0l0,0
			C996.1,767.6,996.1,761.1,992.1,757.1z"/>
		
			<rect x="714.5" y="445.3" transform="matrix(0.5189 -0.8548 0.8548 0.5189 -24.0784 864.6298)" class="st1" width="83.3" height="16.8"/>
		
			<rect x="994.7" y="868.6" transform="matrix(0.815 -0.5795 0.5795 0.815 -316.4834 762.7913)" class="st1" width="83.3" height="16.8"/>
		
			<rect x="208.9" y="74.7" transform="matrix(0.796 0.6053 -0.6053 0.796 101.3923 -134.7191)" class="st2" width="83.3" height="16.8"/>
		
			<rect x="229.3" y="689" transform="matrix(0.796 0.6053 -0.6053 0.796 477.3792 -21.7143)" class="st1" width="83.3" height="16.8"/>
		
			<rect x="1297.9" y="334.8" transform="matrix(0.796 0.6053 -0.6053 0.796 481.0396 -740.8069)" class="st2" width="83.3" height="16.8"/>
		<g>
			<g>
				<g>
					<path class="st4" d="M63.1,100.2L63.1,100.2c-4-4-10.5-4-14.5,0l0,0c-4,4-4,10.5,0,14.5l0,0c4,4,10.5,4,14.5,0l0,0
						C67.1,110.6,67.1,104.1,63.1,100.2z"/>
				</g>
			</g>
		</g>
	</g>
</g>
</svg>
