<?xml version="1.0" encoding="utf-8"?>
<!-- Generator: Adobe Illustrator 22.0.1, SVG Export Plug-In . SVG Version: 6.00 Build 0)  -->
<svg version="1.1" id="Layer_1" xmlns="http://www.w3.org/2000/svg" xmlns:xlink="http://www.w3.org/1999/xlink" x="0px" y="0px"
	 viewBox="0 0 595.3 841.9" style="enable-background:new 0 0 595.3 841.9;" xml:space="preserve">
<style type="text/css">
	.st0{fill:url(#SVGID_1_);}
	.st1{opacity:0.5;fill:url(#SVGID_2_);}
	.st2{opacity:0.5;fill:url(#SVGID_3_);}
	.st3{opacity:0.5;fill:url(#SVGID_4_);}
	.st4{fill:url(#SVGID_5_);}
	.st5{fill:#D8A388;}
	.st6{fill:url(#SVGID_6_);}
	.st7{fill:#AF744B;}
	.st8{fill:#E2B196;}
	.st9{fill:#7C5138;}
	.st10{fill:url(#SVGID_7_);}
	.st11{fill:url(#SVGID_8_);}
	.st12{fill:#443D39;}
	.st13{fill:#FEDECA;}
	.st14{fill:#F3E5C3;}
	.st15{fill:#F4D3B0;}
	.st16{fill:none;}
	.st17{fill:url(#SVGID_9_);}
	.st18{fill:url(#SVGID_10_);}
	.st19{fill:#FFFFFF;}
	.st20{opacity:0.7;fill:url(#SVGID_11_);}
	.st21{opacity:0.7;fill:url(#SVGID_12_);}
	.st22{fill:#282828;}
	.st23{fill:#161923;}
	.st24{fill:#D2D3D6;}
</style>
<linearGradient id="SVGID_1_" gradientUnits="userSpaceOnUse" x1="297.6401" y1="-29.9998" x2="297.6401" y2="412.1613">
	<stop  offset="9.852220e-03" style="stop-color:#F8AC7E"/>
	<stop  offset="0.4729" style="stop-color:#FBBF81"/>
	<stop  offset="0.5839" style="stop-color:#FBC587"/>
	<stop  offset="0.7548" style="stop-color:#FBD599"/>
	<stop  offset="0.9634" style="stop-color:#FBF0BA"/>
	<stop  offset="1" style="stop-color:#FBF7C2"/>
</linearGradient>
<rect class="st0" width="595.3" height="410.6"/>
<radialGradient id="SVGID_2_" cx="300.5195" cy="366.3343" r="462.4793" gradientUnits="userSpaceOnUse">
	<stop  offset="0" style="stop-color:#F7942D;stop-opacity:0.6512"/>
	<stop  offset="0.1942" style="stop-color:#F79530;stop-opacity:0.5248"/>
	<stop  offset="0.3366" style="stop-color:#F89838;stop-opacity:0.4321"/>
	<stop  offset="0.4625" style="stop-color:#F89E46;stop-opacity:0.3501"/>
	<stop  offset="0.5788" style="stop-color:#F8A759;stop-opacity:0.2743"/>
	<stop  offset="0.6886" style="stop-color:#F8B271;stop-opacity:0.2028"/>
	<stop  offset="0.7935" style="stop-color:#F8C18C;stop-opacity:0.1345"/>
	<stop  offset="0.8945" style="stop-color:#F8D2AF;stop-opacity:6.869692e-02"/>
	<stop  offset="0.9901" style="stop-color:#F7E6D9;stop-opacity:6.459475e-03"/>
	<stop  offset="1" style="stop-color:#F7E8DE;stop-opacity:0"/>
</radialGradient>
<circle class="st1" cx="299.3" cy="366.3" r="295.9"/>
<radialGradient id="SVGID_3_" cx="300.0549" cy="382.9471" r="393.481" gradientUnits="userSpaceOnUse">
	<stop  offset="0" style="stop-color:#F7942D;stop-opacity:0.6512"/>
	<stop  offset="0.1081" style="stop-color:#F79632;stop-opacity:0.5808"/>
	<stop  offset="0.2474" style="stop-color:#F89C40;stop-opacity:0.4902"/>
	<stop  offset="0.4037" style="stop-color:#F8A657;stop-opacity:0.3883"/>
	<stop  offset="0.5726" style="stop-color:#F8B475;stop-opacity:0.2784"/>
	<stop  offset="0.7515" style="stop-color:#F8C89A;stop-opacity:0.1619"/>
	<stop  offset="0.9361" style="stop-color:#F8DFCB;stop-opacity:4.164302e-02"/>
	<stop  offset="1" style="stop-color:#F7E8DE;stop-opacity:0"/>
</radialGradient>
<path class="st2" d="M508.3,382.9c0,115.4-93.5,208.9-208.9,208.9c-115.4,0-208.9-93.6-208.9-208.9c0-115.4,93.5-208.9,208.9-208.9
	C414.7,174,508.3,267.5,508.3,382.9z"/>
<radialGradient id="SVGID_4_" cx="297.4445" cy="380.0494" r="257.649" gradientUnits="userSpaceOnUse">
	<stop  offset="0" style="stop-color:#F7942D;stop-opacity:0.6512"/>
	<stop  offset="0.1081" style="stop-color:#F79632;stop-opacity:0.5808"/>
	<stop  offset="0.2474" style="stop-color:#F89C40;stop-opacity:0.4902"/>
	<stop  offset="0.4037" style="stop-color:#F8A657;stop-opacity:0.3883"/>
	<stop  offset="0.5726" style="stop-color:#F8B475;stop-opacity:0.2784"/>
	<stop  offset="0.7515" style="stop-color:#F8C89A;stop-opacity:0.1619"/>
	<stop  offset="0.9361" style="stop-color:#F8DFCB;stop-opacity:4.164302e-02"/>
	<stop  offset="1" style="stop-color:#F7E8DE;stop-opacity:0"/>
</radialGradient>
<path class="st3" d="M416.6,379.8c0,64.8-52.5,117.3-117.3,117.3c-64.8,0-117.3-52.5-117.3-117.3s52.5-117.3,117.3-117.3
	C364.1,262.5,416.6,315,416.6,379.8z"/>
<linearGradient id="SVGID_5_" gradientUnits="userSpaceOnUse" x1="223.7436" y1="455.4066" x2="356.483" y2="322.6672">
	<stop  offset="9.852220e-03" style="stop-color:#FFD593"/>
	<stop  offset="0.2225" style="stop-color:#FFD38F"/>
	<stop  offset="0.4425" style="stop-color:#FECB85"/>
	<stop  offset="0.6659" style="stop-color:#FDBF73"/>
	<stop  offset="0.8902" style="stop-color:#FBAF5A"/>
	<stop  offset="1" style="stop-color:#FAA54A"/>
</linearGradient>
<path class="st4" d="M378.6,379.8c0,43.8-35.5,79.3-79.3,79.3c-43.8,0-79.3-35.5-79.3-79.3s35.5-79.3,79.3-79.3
	C343.1,300.5,378.6,336,378.6,379.8z"/>
<path class="st5" d="M595.3,307c0,0-55.3-9.5-98.3,27.5c0,0-40.5,30.5-67,36.5s-74,14.4-74,14.4s-44.5,12.8-63,25.2
	c-18.5,12.4,302.3,0,302.3,0V307z"/>
<linearGradient id="SVGID_6_" gradientUnits="userSpaceOnUse" x1="297.6401" y1="492.0002" x2="297.6401" y2="461.3267">
	<stop  offset="9.852220e-03" style="stop-color:#FFD894"/>
	<stop  offset="0.767" style="stop-color:#ECAE74"/>
	<stop  offset="1" style="stop-color:#E7A16B"/>
</linearGradient>
<rect y="410.6" class="st6" width="595.3" height="61.5"/>
<path class="st7" d="M595.3,354.3c0,0-19.9-20.3-49.9,18.7c0,0-3.3,11-29.3,19.3s-13,13-13,13l54,5.3h38.3V354.3z"/>
<path class="st8" d="M0,337.3c0,0,41.7-10.7,93,44.7l62,28.6H0V337.3z"/>
<path class="st9" d="M0,393c0,0,64-52,147-25c0,0,56,25.2,130,42.6H0V393z"/>
<linearGradient id="SVGID_7_" gradientUnits="userSpaceOnUse" x1="297.7502" y1="808.9999" x2="297.7502" y2="568.8666">
	<stop  offset="9.852220e-03" style="stop-color:#CC6F31"/>
	<stop  offset="0.5294" style="stop-color:#CD6F33"/>
	<stop  offset="0.7173" style="stop-color:#CD7237"/>
	<stop  offset="0.8514" style="stop-color:#CF7640"/>
	<stop  offset="0.9592" style="stop-color:#D17B4C"/>
	<stop  offset="1" style="stop-color:#D27E51"/>
</linearGradient>
<rect x="0.1" y="569.6" class="st10" width="595.3" height="272.3"/>
<linearGradient id="SVGID_8_" gradientUnits="userSpaceOnUse" x1="299.4077" y1="597" x2="299.4077" y2="556.95">
	<stop  offset="9.852220e-03" style="stop-color:#FFD894"/>
	<stop  offset="0.5" style="stop-color:#F1B175"/>
	<stop  offset="1" style="stop-color:#E48A59"/>
</linearGradient>
<rect x="1.8" y="472.1" class="st11" width="595.3" height="99.3"/>
<path class="st9" d="M365.3,410.6c0,0,89-43.6,147-15.6c0,0,18,6.2,83,15.6H365.3z"/>
<path class="st12" d="M291.8,410.6c0,0-1.7,21.8-2.6,24.1c0,0-3.1,18.1-3.9,17.8l-3.5,15.2l-3.5,4.2l38.9,0l-3.7-8.4l-4.9-15.1
	l-3.1-21l-1.3-11.7l-0.4-5.1H291.8z"/>
<polygon class="st13" points="298,413.1 297.3,413.1 297.3,410.6 297.9,410.6 "/>
<rect x="297.3" y="415.1" class="st13" width="0.7" height="4.1"/>
<polygon class="st13" points="298,426.7 297.3,426.7 297.3,421.8 298,421.8 "/>
<polygon class="st13" points="298.1,436.7 297.2,436.7 297.3,430.4 298,430.4 "/>
<polygon class="st13" points="298.2,456.5 297.1,456.5 297.1,450.7 298.1,450.7 "/>
<polygon class="st13" points="298.2,463.9 297.1,463.9 297.2,460 298.1,460 "/>
<polygon class="st13" points="298.2,469.1 297.1,469.1 297.2,466.2 298.1,466.2 "/>
<polygon class="st13" points="298.2,447.4 297.1,447.4 297.1,439.9 298.1,439.9 "/>
<path class="st14" d="M291.4,410.6c0,0-2.1,40-13.2,61.4l-7.5,16.3c0,0,13.9-10.4,18.9-52.7c2.4-19.7,2-19.5,2.4-25"/>
<path class="st14" d="M304.2,410.6c0,0,2.1,40,13.2,61.4l7.5,16.3c0,0-13.9-10.4-18.9-52.7c-2.4-19.7-2-19.5-2.4-25"/>
<path class="st12" d="M267.9,472.5c0,0,0.1,38.3-4.1,40.6c0,0-4,28-6.2,27.5l-9.8,26.4v7.6l102.8,0.1l-7.3-15.1l-6.7-26.9l-5.8-32.6
	l-3-19.2l-2.3-8.4H267.9z"/>
<path class="st15" d="M324.5,472.1h3.3c1.7,12.9,3.2,32.4,7,47.7c4.8,18.9,3.6,15.4,7.7,27.7c5.3,16.3,10.8,27.7,10.8,27.7L346,575
	c0,0,0.2,2.1-6.9-20.2C329.8,525.8,327.9,504.9,324.5,472.1"/>
<polygon class="st13" points="299.1,476.2 297.4,476.2 297.4,472.1 299,472.1 "/>
<rect x="297.3" y="479.6" class="st13" width="1.8" height="6.8"/>
<polygon class="st13" points="299.2,498.9 297.2,498.9 297.3,490.8 299.1,490.8 "/>
<polygon class="st13" points="299.4,515.5 297,515.5 297.2,505.1 299.2,505.1 "/>
<polygon class="st13" points="299.6,548.6 296.7,548.6 296.8,539 299.4,539 "/>
<polygon class="st13" points="299.7,560.9 296.8,560.9 296.9,554.5 299.5,554.5 "/>
<polygon class="st13" points="299.7,569.6 296.8,569.6 296.9,564.8 299.5,564.8 "/>
<polygon class="st13" points="299.6,533.4 296.7,533.4 296.8,520.9 299.4,520.9 "/>
<path class="st15" d="M270.3,472.1H267c-1.7,12.9-3.2,32.4-7,47.7c-4.8,18.9-3.6,15.4-7.7,27.7c-5.3,16.3-11.3,27.7-11.3,27.7
	l7.8-0.1c0,0-0.2,2.1,6.9-20.2C265,525.8,266.9,504.9,270.3,472.1"/>
<path class="st12" d="M222.2,571.4c0,0-29.6,93.1-40.7,99.3c0,0-62.8,78-68.4,76.7L0.6,822v19.9h595.3L562.6,797l-102-70l-65-85.7
	l-16-48l-6-21.9H222.2z"/>
<path class="st16" d="M0,807"/>
<linearGradient id="SVGID_9_" gradientUnits="userSpaceOnUse" x1="0" y1="706.6533" x2="225.25" y2="706.6533">
	<stop  offset="9.852220e-03" style="stop-color:#FFE4B3"/>
	<stop  offset="0.3104" style="stop-color:#FDC38B"/>
	<stop  offset="0.4778" style="stop-color:#FAB075"/>
	<stop  offset="0.7094" style="stop-color:#FBB37A"/>
	<stop  offset="1" style="stop-color:#FFE3A9"/>
</linearGradient>
<path class="st17" d="M225.3,571.4h-8.8c-4.5,33.9-28.6,84-54.7,116c-29,35.6-61.8,62.5-96.6,78C29.1,781.4,0,803.3,0,803.3v38.6
	c0,0,29-37.2,82-68.2C147,735.7,216.1,657.7,225.3,571.4"/>
<linearGradient id="SVGID_10_" gradientUnits="userSpaceOnUse" x1="370.0303" y1="706.6533" x2="595.2803" y2="706.6533">
	<stop  offset="9.852220e-03" style="stop-color:#FFE4B3"/>
	<stop  offset="0.3104" style="stop-color:#FDC38B"/>
	<stop  offset="0.4778" style="stop-color:#FAB075"/>
	<stop  offset="0.7094" style="stop-color:#FBB37A"/>
	<stop  offset="1" style="stop-color:#FFE3A9"/>
</linearGradient>
<path class="st18" d="M370,571.4h8.8c4.5,33.9,28.6,84,54.7,116c29,35.6,61.8,62.5,96.6,78c36.1,16,65.2,37.9,65.2,37.9v38.6
	c0,0-29-37.2-82-68.2C448.3,735.7,379.2,657.7,370,571.4"/>
<polygon class="st13" points="299.9,582.3 295.5,582.3 295.5,571.4 299.6,571.4 "/>
<rect x="295.4" y="593" class="st13" width="4.8" height="16.1"/>
<polygon class="st13" points="300.2,640 295,640 295.2,618.6 300,618.6 "/>
<polygon class="st13" points="300.9,677.4 294.5,677.4 295,649.9 300.4,649.9 "/>
<polygon class="st13" points="302.8,766.2 292.1,766.2 292.8,759.5 301.9,759.5 "/>
<polygon class="st13" points="301.3,752.3 293.7,752.3 294,734.7 300.7,734.7 "/>
<polygon class="st13" points="301.3,724.5 293.7,724.5 294,691.6 300.7,691.6 "/>
<polygon class="st13" points="305.8,789 289.3,789 291.2,773.2 303.6,773.2 "/>
<polygon class="st13" points="314.4,841.8 280.4,841.8 287.2,801 307.5,801 "/>
<g>
	<g>
		<path class="st19" d="M59.3,96.5c3.2,0,3.2-5,0-5C56,91.5,56,96.5,59.3,96.5L59.3,96.5z"/>
	</g>
</g>
<g>
	<g>
		<path class="st19" d="M195,104c2.6,0,2.6-4,0-4C192.4,100,192.4,104,195,104L195,104z"/>
	</g>
</g>
<g>
	<g>
		<path class="st19" d="M378.3,72.2c1.9,0,1.9-3,0-3C376.4,69.2,376.4,72.2,378.3,72.2L378.3,72.2z"/>
	</g>
</g>
<g>
	<g>
		<path class="st19" d="M504.3,208.5c0.6,0,0.6-1,0-1C503.7,207.5,503.7,208.5,504.3,208.5L504.3,208.5z"/>
	</g>
</g>
<g>
	<g>
		<path class="st19" d="M210.3,284.5c0.6,0,0.6-1,0-1S209.7,284.5,210.3,284.5L210.3,284.5z"/>
	</g>
</g>
<g>
	<g>
		<path class="st19" d="M179.7,194.3c1.3,0,1.3-2,0-2C178.4,192.3,178.4,194.3,179.7,194.3L179.7,194.3z"/>
	</g>
</g>
<g>
	<g>
		<path class="st19" d="M363.8,179.7c0,0.2,0,0.4,0,0.7c0,1.9,3,1.9,3,0c0-0.2,0-0.4,0-0.7C366.8,177.7,363.8,177.7,363.8,179.7
			L363.8,179.7z"/>
	</g>
</g>
<g>
	<g>
		<path class="st19" d="M531.7,98.8c1.9,0,1.9-3,0-3C529.7,95.8,529.7,98.8,531.7,98.8L531.7,98.8z"/>
	</g>
</g>
<g>
	<g>
		<path class="st19" d="M531.7,215.7c1.3,0,1.3-2,0-2S530.4,215.7,531.7,215.7L531.7,215.7z"/>
	</g>
</g>
<g>
	<g>
		<path class="st19" d="M91,237.5c1.9,0,1.9-3,0-3C89.1,234.5,89.1,237.5,91,237.5L91,237.5z"/>
	</g>
</g>
<g>
	<g>
		<path class="st19" d="M91,182.8c1.9,0,1.9-3,0-3C89.1,179.8,89.1,182.8,91,182.8L91,182.8z"/>
	</g>
</g>
<g>
	<g>
		<path class="st19" d="M273,165.7c1.3,0,1.3-2,0-2C271.7,163.7,271.7,165.7,273,165.7L273,165.7z"/>
	</g>
</g>
<g>
	<g>
		<path class="st19" d="M303.5,206.3c1.3,0,1.3-2,0-2S302.2,206.3,303.5,206.3L303.5,206.3z"/>
	</g>
</g>
<g>
	<g>
		<path class="st19" d="M537.7,112.5c0.6,0,0.6-1,0-1C537,111.5,537,112.5,537.7,112.5L537.7,112.5z"/>
	</g>
</g>
<g>
	<g>
		<path class="st19" d="M501,211.8c0.6,0,0.6-1,0-1S500.4,211.8,501,211.8L501,211.8z"/>
	</g>
</g>
<g>
	<g>
		<path class="st19" d="M519.7,94.5c0.6,0,0.6-1,0-1C519,93.5,519,94.5,519.7,94.5L519.7,94.5z"/>
	</g>
</g>
<g>
	<g>
		<path class="st19" d="M465.7,39c1.3,0,1.3-2,0-2C464.4,37,464.4,39,465.7,39L465.7,39z"/>
	</g>
</g>
<g>
	<g>
		<path class="st19" d="M410.3,39.7c1.3,0,1.3-2,0-2C409,37.7,409,39.7,410.3,39.7L410.3,39.7z"/>
	</g>
</g>
<g>
	<g>
		<path class="st19" d="M240.3,36.3c1.3,0,1.3-2,0-2C239,34.3,239,36.3,240.3,36.3L240.3,36.3z"/>
	</g>
</g>
<g>
	<g>
		<path class="st19" d="M115,111.7c1.3,0,1.3-2,0-2C113.7,109.7,113.7,111.7,115,111.7L115,111.7z"/>
	</g>
</g>
<g>
	<g>
		<path class="st19" d="M31,197.8c0.6,0,0.6-1,0-1S30.4,197.8,31,197.8L31,197.8z"/>
	</g>
</g>
<g>
	<g>
		<path class="st19" d="M563.7,174.7c2.6,0,2.6-4,0-4S561.1,174.7,563.7,174.7L563.7,174.7z"/>
	</g>
</g>
<g>
	<g>
		<path class="st19" d="M472.3,279.8c0.6,0,0.6-1,0-1C471.7,278.8,471.7,279.8,472.3,279.8L472.3,279.8z"/>
	</g>
</g>
<g>
	<g>
		<path class="st19" d="M460.3,277.7c1.3,0,1.3-2,0-2C459,275.7,459,277.7,460.3,277.7L460.3,277.7z"/>
	</g>
</g>
<g>
	<g>
		<path class="st19" d="M547.7,39.7c3.9,0,3.9-6,0-6S543.8,39.7,547.7,39.7L547.7,39.7z"/>
	</g>
</g>
<g>
	<g>
		<path class="st19" d="M23.7,280.8c1.9,0,1.9-3,0-3S21.7,280.8,23.7,280.8L23.7,280.8z"/>
	</g>
</g>
<g>
	<g>
		<path class="st19" d="M21.7,29.2c0.6,0,0.6-1,0-1S21,29.2,21.7,29.2L21.7,29.2z"/>
	</g>
</g>
<g>
	<g>
		<path class="st19" d="M107,21.7c1.3,0,1.3-2,0-2C105.7,19.7,105.7,21.7,107,21.7L107,21.7z"/>
	</g>
</g>
<g>
	<g>
		<path class="st19" d="M264.3,101.7c1.3,0,1.3-2,0-2C263,99.7,263,101.7,264.3,101.7L264.3,101.7z"/>
	</g>
</g>
<g>
	<g>
		<path class="st19" d="M174,39.7c1.3,0,1.3-2,0-2C172.7,37.7,172.7,39.7,174,39.7L174,39.7z"/>
	</g>
</g>
<g>
	<g>
		<path class="st19" d="M28.3,25.8c0.6,0,0.6-1,0-1S27.7,25.8,28.3,25.8L28.3,25.8z"/>
	</g>
</g>
<g>
	<g>
		<path class="st19" d="M346.3,25c1.3,0,1.3-2,0-2C345,23,345,25,346.3,25L346.3,25z"/>
	</g>
</g>
<g>
	<g>
		<path class="st19" d="M497.7,181c1.3,0,1.3-2,0-2C496.4,179,496.4,181,497.7,181L497.7,181z"/>
	</g>
</g>
<g>
	<g>
		<path class="st19" d="M644.3,103.2c0.6,0,0.6-1,0-1S643.7,103.2,644.3,103.2L644.3,103.2z"/>
	</g>
</g>
<g>
	<g>
		<path class="st19" d="M589,97.8c0.6,0,0.6-1,0-1C588.4,96.8,588.4,97.8,589,97.8L589,97.8z"/>
	</g>
</g>
<g>
	<g>
		<path class="st19" d="M335.7,286.5c0.6,0,0.6-1,0-1S335,286.5,335.7,286.5L335.7,286.5z"/>
	</g>
</g>
<g>
	<g>
		<path class="st19" d="M462.3,87c3.9,0,3.9-6,0-6C458.5,81,458.5,87,462.3,87L462.3,87z"/>
	</g>
</g>
<g>
	<g>
		<path class="st19" d="M217,13.3c2.6,0,2.6-4,0-4C214.4,9.3,214.4,13.3,217,13.3L217,13.3z"/>
	</g>
</g>
<g>
	<g>
		<path class="st19" d="M517,252.3c1.3,0,1.3-2,0-2S515.7,252.3,517,252.3L517,252.3z"/>
	</g>
</g>
<g>
	<g>
		<path class="st19" d="M180.3,260.3c1.3,0,1.3-2,0-2C179,258.3,179,260.3,180.3,260.3L180.3,260.3z"/>
	</g>
</g>
<g>
	<g>
		<path class="st19" d="M398.5,251.7c1.3,0,1.3-2,0-2C397.2,249.7,397.2,251.7,398.5,251.7L398.5,251.7z"/>
	</g>
</g>
<g>
	<g>
		<path class="st19" d="M346.3,117.1c1.3,0,1.3-2,0-2C345,115.1,345,117.1,346.3,117.1L346.3,117.1z"/>
	</g>
</g>
<g>
	<g>
		<path class="st19" d="M588.3,251.7c1.3,0,1.3-2,0-2C587,249.7,587,251.7,588.3,251.7L588.3,251.7z"/>
	</g>
</g>
<g>
	<g>
		<path class="st19" d="M462.3,129c0.1,0,0.1,0,0.1,0.1c-0.1-0.1-0.2-0.2-0.3-0.3c-0.4-0.3-0.7-0.4-1.2-0.5c-0.5,0-1,0.5-1,1
			c0,0.6,0.5,1,1,1c-0.1,0-0.1,0-0.1-0.1c0.1,0.1,0.2,0.2,0.3,0.3c0.4,0.3,0.7,0.4,1.2,0.5c0.5,0,1-0.5,1-1
			C463.3,129.4,462.9,129,462.3,129L462.3,129z"/>
	</g>
</g>
<linearGradient id="SVGID_11_" gradientUnits="userSpaceOnUse" x1="235.9853" y1="193.3734" x2="99.9867" y2="94.0411" gradientTransform="matrix(1.1395 0.1002 0.1002 1.0719 -52.5302 -37.9257)">
	<stop  offset="0" style="stop-color:#FFFFFF"/>
	<stop  offset="1" style="stop-color:#FFFFFF;stop-opacity:0"/>
</linearGradient>
<path class="st20" d="M237.1,188.6c2.4,1.7,3.1,4.6,1.7,6.6c-1.4,1.9-4.4,2.1-6.8,0.5C229.7,194,57.9,63.8,59.3,61.9
	C60.7,60,234.7,186.9,237.1,188.6z"/>
<linearGradient id="SVGID_12_" gradientUnits="userSpaceOnUse" x1="458.4398" y1="175.175" x2="370.8795" y2="111.2216" gradientTransform="matrix(-0.2111 0.9775 -0.9775 -0.2111 623.5482 -176.6015)">
	<stop  offset="0" style="stop-color:#FFFFFF"/>
	<stop  offset="1" style="stop-color:#FFFFFF;stop-opacity:0"/>
</linearGradient>
<path class="st21" d="M358,236.1c-1.1,1-2.9,0.9-3.9-0.2c-1-1.1-0.9-2.9,0.2-3.9c1.1-1,88.4-75.2,89.5-74.1
	C444.8,159,359.1,235.1,358,236.1z"/>
<path class="st22" d="M281,567.2c-0.8,0.7-30.9,0.8-31.7,0c-0.8-0.8,0-3.4,0-3.4H281C281,563.8,281.8,566.5,281,567.2z"/>
<rect x="249.6" y="566.6" class="st22" width="4.3" height="4.9"/>
<rect x="276.4" y="566.6" class="st22" width="4.3" height="4.9"/>
<path class="st23" d="M270.8,551.9h-17.3c0,0-3.8,2.7-4.3,12.1H281c-0.1-1.6-0.2-3-0.4-4.2C279.4,558,275.9,553.1,270.8,551.9z"/>
<path class="st24" d="M275.3,551.9h-8.5c5,1.1,12.6,6,13.7,7.9C279.3,551.9,275.3,551.9,275.3,551.9z"/>
</svg>
